<svg width="512" height="512" viewBox="0 0 512 512" fill="none" xmlns="http://www.w3.org/2000/svg">
<path d="M183.295 123.586H55.05C48.363 123.586 42.249 119.808 39.259 113.826L26.483 88.276L39.259 62.726C42.249 56.744 48.362 52.966 55.05 52.966H183.296C189.983 52.966 196.097 56.744 199.087 62.726L211.862 88.276L199.086 113.826C196.096 119.808 189.983 123.586 183.295 123.586Z" fill="#FFC36E"/>
<path d="M183.295 123.586H55.05C48.363 123.586 42.249 119.808 39.259 113.826L26.483 88.276L39.259 62.726C42.249 56.744 48.362 52.966 55.05 52.966H183.296C189.983 52.966 196.097 56.744 199.087 62.726L211.862 88.276L199.086 113.826C196.096 119.808 189.983 123.586 183.295 123.586Z" fill="#FFC36E"/>
<path d="M485.517 70.621H26.483C21.608 70.621 17.655 74.574 17.655 79.449V123.587H494.345V79.448C494.345 74.573 490.392 70.621 485.517 70.621Z" fill="#EFF2FA"/>
<path d="M494.345 105.931H17.655V123.586H494.345V105.931Z" fill="#E1E6F2"/>
<path d="M494.345 88.276H217.318C213.975 88.276 210.918 90.165 209.423 93.155L199.087 113.826C196.097 119.808 189.982 123.586 183.296 123.586H55.05C48.363 123.586 42.249 119.808 39.259 113.826L28.922 93.155C27.427 90.165 24.37 88.276 21.027 88.276H17.655C7.904 88.276 0 96.18 0 105.931V441.379C0 451.13 7.904 459.034 17.655 459.034H494.345C504.096 459.034 512 451.13 512 441.379V105.931C512 96.18 504.096 88.276 494.345 88.276Z" fill="#FFD782"/>
<path d="M485.517 441.379H26.483C21.608 441.379 17.655 437.426 17.655 432.551C17.655 427.676 21.608 423.723 26.483 423.723H485.517C490.392 423.723 494.345 427.676 494.345 432.551C494.345 437.427 490.392 441.379 485.517 441.379Z" fill="#FFC36E"/>
<path d="M72.5918 148.234V198H60.6289V148.234H72.5918ZM118.256 182.38V148.234H130.219V182.38C130.219 185.707 129.455 188.589 127.929 191.027C126.425 193.465 124.374 195.357 121.776 196.701C119.201 198.023 116.308 198.684 113.095 198.684C109.768 198.684 106.806 198.125 104.208 197.009C101.633 195.892 99.6051 194.172 98.124 191.848C96.6657 189.523 95.9365 186.561 95.9365 182.961H107.968C107.968 184.647 108.161 185.969 108.549 186.926C108.936 187.86 109.506 188.521 110.258 188.908C111.033 189.273 111.978 189.455 113.095 189.455C114.188 189.455 115.111 189.182 115.863 188.635C116.638 188.065 117.23 187.256 117.641 186.208C118.051 185.137 118.256 183.861 118.256 182.38ZM164.843 148.234H176.84V180.739C176.84 184.613 176.031 187.894 174.413 190.583C172.795 193.249 170.528 195.266 167.611 196.633C164.695 198 161.265 198.684 157.323 198.684C153.427 198.684 149.997 198 147.035 196.633C144.096 195.266 141.794 193.249 140.131 190.583C138.49 187.894 137.67 184.613 137.67 180.739V148.234H149.701V180.739C149.701 182.79 149.997 184.465 150.59 185.764C151.182 187.04 152.048 187.974 153.188 188.566C154.327 189.159 155.705 189.455 157.323 189.455C158.964 189.455 160.342 189.159 161.459 188.566C162.576 187.974 163.419 187.04 163.988 185.764C164.558 184.465 164.843 182.79 164.843 180.739V148.234ZM210.028 184.772C210.028 183.998 209.914 183.303 209.687 182.688C209.459 182.049 209.037 181.457 208.422 180.91C207.807 180.363 206.918 179.816 205.756 179.27C204.617 178.7 203.113 178.107 201.244 177.492C199.057 176.763 196.949 175.943 194.921 175.031C192.893 174.097 191.081 173.015 189.486 171.784C187.891 170.531 186.627 169.073 185.692 167.409C184.758 165.723 184.291 163.763 184.291 161.53C184.291 159.388 184.77 157.463 185.727 155.754C186.684 154.022 188.017 152.552 189.726 151.345C191.457 150.114 193.485 149.18 195.81 148.542C198.134 147.881 200.674 147.551 203.432 147.551C207.077 147.551 210.29 148.189 213.07 149.465C215.873 150.718 218.061 152.507 219.633 154.831C221.228 157.132 222.025 159.855 222.025 163H210.097C210.097 161.747 209.835 160.642 209.311 159.685C208.809 158.728 208.046 157.976 207.021 157.429C205.995 156.882 204.708 156.608 203.158 156.608C201.654 156.608 200.39 156.836 199.364 157.292C198.339 157.748 197.564 158.363 197.04 159.138C196.516 159.89 196.254 160.721 196.254 161.633C196.254 162.385 196.459 163.068 196.869 163.684C197.302 164.276 197.906 164.834 198.681 165.358C199.478 165.882 200.435 166.384 201.552 166.862C202.691 167.341 203.967 167.808 205.38 168.264C208.023 169.107 210.37 170.052 212.421 171.101C214.494 172.126 216.238 173.299 217.65 174.621C219.086 175.92 220.168 177.401 220.897 179.064C221.649 180.728 222.025 182.608 222.025 184.704C222.025 186.937 221.592 188.92 220.727 190.651C219.861 192.383 218.619 193.853 217.001 195.061C215.383 196.245 213.446 197.146 211.19 197.761C208.935 198.376 206.417 198.684 203.637 198.684C201.085 198.684 198.567 198.365 196.083 197.727C193.622 197.066 191.389 196.063 189.384 194.719C187.379 193.352 185.772 191.608 184.564 189.489C183.38 187.347 182.787 184.807 182.787 181.867H194.818C194.818 183.326 195.012 184.556 195.399 185.559C195.787 186.561 196.356 187.37 197.108 187.985C197.86 188.578 198.783 189.011 199.877 189.284C200.971 189.535 202.224 189.66 203.637 189.66C205.163 189.66 206.394 189.444 207.328 189.011C208.262 188.555 208.946 187.963 209.379 187.233C209.812 186.481 210.028 185.661 210.028 184.772ZM252.309 148.234V198H240.312V148.234H252.309ZM267.279 148.234V157.497H225.683V148.234H267.279ZM299.75 148.234V198H287.753V148.234H299.75ZM319.096 168.947V178.176H296.332V168.947H319.096ZM321.044 148.234V157.497H296.332V148.234H321.044ZM360.282 188.771V198H333.759V188.771H360.282ZM338.031 148.234V198H326.034V148.234H338.031ZM356.864 167.99V176.911H333.759V167.99H356.864ZM360.385 148.234V157.497H333.759V148.234H360.385ZM399.452 188.771V198H372.929V188.771H399.452ZM377.201 148.234V198H365.204V148.234H377.201ZM396.034 167.99V176.911H372.929V167.99H396.034ZM399.555 148.234V157.497H372.929V148.234H399.555ZM437.255 188.771V198H412.099V188.771H437.255ZM416.371 148.234V198H404.374V148.234H416.371ZM57.9971 270.771V280H31.4736V270.771H57.9971ZM35.7461 230.234V280H23.749V230.234H35.7461ZM54.5791 249.99V258.911H31.4736V249.99H54.5791ZM58.0996 230.234V239.497H31.4736V230.234H58.0996ZM68.8662 230.234H78.6416L89.75 264.858L100.858 230.234H110.634L93.7148 280H85.7852L68.8662 230.234ZM62.9189 230.234H73.0361L74.916 268.379V280H62.9189V230.234ZM106.464 230.234H116.615V280H104.584V268.379L106.464 230.234ZM144.164 263.115H131.791V253.853H144.164C145.85 253.853 147.217 253.568 148.266 252.998C149.314 252.428 150.077 251.642 150.556 250.64C151.057 249.614 151.308 248.464 151.308 247.188C151.308 245.82 151.057 244.556 150.556 243.394C150.077 242.231 149.314 241.297 148.266 240.591C147.217 239.862 145.85 239.497 144.164 239.497H136.303V280H124.306V230.234H144.164C148.152 230.234 151.581 230.964 154.452 232.422C157.346 233.88 159.568 235.885 161.117 238.438C162.667 240.967 163.441 243.861 163.441 247.119C163.441 250.332 162.667 253.135 161.117 255.527C159.568 257.92 157.346 259.788 154.452 261.133C151.581 262.454 148.152 263.115 144.164 263.115ZM193.998 230.234V280H182.001V230.234H193.998ZM208.969 230.234V239.497H167.372V230.234H208.969ZM223.632 230.234L232.792 251.836L241.986 230.234H254.906L238.91 262.124V280H226.708V262.124L210.678 230.234H223.632ZM288.744 230.234V280H276.781V230.234H288.744ZM338.749 230.234V280H326.786L309.184 249.033V280H297.187V230.234H309.184L326.786 261.201V230.234H338.749ZM371.972 266.772C371.972 265.998 371.858 265.303 371.63 264.688C371.402 264.049 370.98 263.457 370.365 262.91C369.75 262.363 368.861 261.816 367.699 261.27C366.56 260.7 365.056 260.107 363.188 259.492C361 258.763 358.892 257.943 356.864 257.031C354.836 256.097 353.025 255.015 351.43 253.784C349.835 252.531 348.57 251.073 347.636 249.409C346.701 247.723 346.234 245.763 346.234 243.53C346.234 241.388 346.713 239.463 347.67 237.754C348.627 236.022 349.96 234.552 351.669 233.345C353.401 232.114 355.429 231.18 357.753 230.542C360.077 229.881 362.618 229.551 365.375 229.551C369.021 229.551 372.234 230.189 375.014 231.465C377.816 232.718 380.004 234.507 381.576 236.831C383.171 239.132 383.969 241.855 383.969 245H372.04C372.04 243.747 371.778 242.642 371.254 241.685C370.753 240.728 369.989 239.976 368.964 239.429C367.938 238.882 366.651 238.608 365.102 238.608C363.598 238.608 362.333 238.836 361.308 239.292C360.282 239.748 359.507 240.363 358.983 241.138C358.459 241.89 358.197 242.721 358.197 243.633C358.197 244.385 358.402 245.068 358.812 245.684C359.245 246.276 359.849 246.834 360.624 247.358C361.422 247.882 362.379 248.384 363.495 248.862C364.634 249.341 365.91 249.808 367.323 250.264C369.966 251.107 372.313 252.052 374.364 253.101C376.438 254.126 378.181 255.299 379.594 256.621C381.029 257.92 382.112 259.401 382.841 261.064C383.593 262.728 383.969 264.608 383.969 266.704C383.969 268.937 383.536 270.92 382.67 272.651C381.804 274.383 380.562 275.853 378.944 277.061C377.326 278.245 375.39 279.146 373.134 279.761C370.878 280.376 368.36 280.684 365.58 280.684C363.028 280.684 360.51 280.365 358.026 279.727C355.565 279.066 353.332 278.063 351.327 276.719C349.322 275.352 347.715 273.608 346.508 271.489C345.323 269.347 344.73 266.807 344.73 263.867H356.762C356.762 265.326 356.955 266.556 357.343 267.559C357.73 268.561 358.3 269.37 359.052 269.985C359.804 270.578 360.727 271.011 361.82 271.284C362.914 271.535 364.167 271.66 365.58 271.66C367.107 271.66 368.337 271.444 369.271 271.011C370.206 270.555 370.889 269.963 371.322 269.233C371.755 268.481 371.972 267.661 371.972 266.772ZM402.904 230.234V280H390.941V230.234H402.904ZM427.514 280H416.474L416.542 270.771H427.514C429.792 270.771 431.718 270.225 433.29 269.131C434.885 268.037 436.093 266.408 436.913 264.243C437.756 262.056 438.178 259.367 438.178 256.177V254.023C438.178 251.631 437.938 249.535 437.46 247.734C437.004 245.911 436.321 244.396 435.409 243.188C434.498 241.958 433.358 241.035 431.991 240.42C430.647 239.805 429.097 239.497 427.343 239.497H416.269V230.234H427.343C430.715 230.234 433.803 230.815 436.605 231.978C439.431 233.117 441.869 234.757 443.92 236.899C445.993 239.019 447.589 241.536 448.705 244.453C449.844 247.347 450.414 250.56 450.414 254.092V256.177C450.414 259.686 449.844 262.899 448.705 265.815C447.589 268.732 446.005 271.25 443.954 273.369C441.903 275.488 439.477 277.129 436.674 278.291C433.894 279.43 430.84 280 427.514 280ZM423.344 230.234V280H411.347V230.234H423.344ZM490.917 270.771V280H464.394V270.771H490.917ZM468.666 230.234V280H456.669V230.234H468.666ZM487.499 249.99V258.911H464.394V249.99H487.499ZM491.02 230.234V239.497H464.394V230.234H491.02Z" fill="black"/>
<path d="M199.004 299V337.297" stroke="black" stroke-width="14.9333" stroke-miterlimit="10"/>
<path d="M313.916 299V337.297" stroke="black" stroke-width="14.9333" stroke-miterlimit="10"/>
<path d="M313.916 420.739C313.916 389.005 288.192 363.297 256.458 363.297C224.724 363.297 199 389.005 199 420.739" stroke="black" stroke-width="14.9333" stroke-miterlimit="10"/>
</svg>
